<svg width="100" height="32" viewBox="0 0 100 32" fill="none" xmlns="http://www.w3.org/2000/svg">
<path fill-rule="evenodd" clip-rule="evenodd" d="M6.66539 14.3253C5.30745 14.3253 4.12802 14.0448 3.12709 13.4838C2.13254 12.9164 1.36113 12.1163 0.812853 11.0835C0.270951 10.0443 0 8.81706 0 7.40174V6.93316C0 5.58159 0.261388 4.38622 0.784164 3.34704C1.31331 2.30149 2.06241 1.48226 3.03146 0.889356C4.00689 0.296452 5.17038 0 6.52195 0C7.45912 0 8.3421 0.133882 9.17089 0.401645C9.99968 0.669408 10.7392 1.07743 11.3895 1.62571V4.99187H9.31433L9.02745 2.87845C8.70868 2.65532 8.34847 2.48 7.94683 2.35249C7.54519 2.21861 7.09254 2.15167 6.58889 2.15167C5.40945 2.15167 4.48185 2.582 3.80606 3.44267C3.13028 4.29696 2.79239 5.45408 2.79239 6.91403V7.40174C2.79239 8.86806 3.14303 10.0316 3.84431 10.8922C4.5456 11.7529 5.5019 12.1832 6.71321 12.1832C7.11485 12.1832 7.5165 12.1386 7.91814 12.0493C8.32616 11.9537 8.69593 11.8326 9.02745 11.686L9.31433 9.72554H11.3895V13.0535C10.8476 13.4105 10.1718 13.7133 9.36215 13.9619C8.55248 14.2042 7.65357 14.3253 6.66539 14.3253ZM19.059 14.3253C17.8031 14.3253 16.7033 14.0225 15.7598 13.4169C14.8162 12.8048 14.0799 11.9665 13.5507 10.9018C13.028 9.83711 12.7666 8.6258 12.7666 7.26786V7.05747C12.7666 5.70591 13.028 4.49778 13.5507 3.43311C14.0799 2.36843 14.813 1.53008 15.7502 0.918045C16.6938 0.306015 17.7935 0 19.0494 0C20.3054 0 21.4083 0.306015 22.3582 0.918045C23.3145 1.53008 24.0573 2.36843 24.5864 3.43311C25.1219 4.49778 25.3897 5.70591 25.3897 7.05747V7.26786C25.3897 8.6258 25.1251 9.83711 24.596 10.9018C24.0668 11.9665 23.3241 12.8048 22.3678 13.4169C21.4179 14.0225 20.3149 14.3253 19.059 14.3253ZM19.059 12.1545C20.2384 12.1545 21.1246 11.7083 21.7175 10.8157C22.3104 9.9168 22.6069 8.73418 22.6069 7.26786V7.03835C22.6069 6.07568 22.473 5.23095 22.2052 4.50416C21.9375 3.771 21.539 3.20041 21.0098 2.79239C20.4871 2.38437 19.8336 2.18036 19.0494 2.18036C17.8764 2.18036 16.9998 2.62663 16.4196 3.51917C15.8458 4.41172 15.559 5.58478 15.559 7.03835V7.26786C15.559 8.73418 15.849 9.9168 16.4292 10.8157C17.0157 11.7083 17.8923 12.1545 19.059 12.1545ZM26.5086 12.451V14.1245H32.275V12.451L30.6302 12.1641V9.20914L30.4676 3.29923L30.525 3.28966L34.7805 13.9333H36.8939L41.0538 3.2036L41.1112 3.21316L41.0634 9.49603V12.1641L39.5046 12.451V14.1245H45.2711V12.451L43.7793 12.1641V2.17079L45.2711 1.88391V0.200822H39.6481L35.9759 9.90724H35.9185L32.122 0.200822H26.5086V1.88391L27.9908 2.17079V12.1641L26.5086 12.451ZM46.2657 14.1245V12.451L47.7479 12.1641V2.17079L46.2657 1.88391V0.200822H52.8928C53.9575 0.200822 54.8755 0.388894 55.6469 0.765038C56.4184 1.13481 57.0113 1.65439 57.4256 2.3238C57.84 2.98684 58.0472 3.76144 58.0472 4.6476C58.0472 5.53377 57.84 6.31156 57.4256 6.98097C57.0113 7.644 56.4184 8.1604 55.6469 8.53017C54.8755 8.89356 53.9575 9.07526 52.8928 9.07526H50.5403V12.1641L52.0321 12.451V14.1245H46.2657ZM50.5403 6.92359H52.8928C53.6706 6.92359 54.2571 6.71321 54.6524 6.29244C55.054 5.86529 55.2549 5.32339 55.2549 4.66673C55.2549 3.99732 55.054 3.44586 54.6524 3.01234C54.2571 2.57244 53.6706 2.35249 52.8928 2.35249H50.5403V6.92359ZM56.5459 12.451V14.1245H61.2891V12.451L60.3232 12.2789L60.9353 10.3663H65.8315L66.4435 12.2789L65.4777 12.451V14.1245H70.2209V12.451L69.2264 12.3075L64.8274 0.200822H61.9681L57.5404 12.3075L56.5459 12.451ZM65.1717 8.31022H61.5951L63.2112 3.56699L63.3547 3.11753H63.4121L63.546 3.5383L65.1717 8.31022ZM71.1485 14.1245V12.451L72.6308 12.1641V2.17079L71.1485 1.88391V0.200822H75.4614L81.5243 9.85942L81.5817 9.84986V2.17079L79.803 1.88391V0.200822H85.5695V1.88391L84.0777 2.17079V14.1245H81.3809L75.1841 4.56154L75.1267 4.5711V12.1641L76.915 12.451V14.1245H71.1485ZM90.2745 12.451V14.1245H96.0409V12.451L94.5491 12.1641V9.13264L98.6229 2.07517L100 1.88391V0.200822H94.5491V1.88391L96.0792 2.04648L93.5067 6.51238L93.2964 6.93316L93.239 6.94272L93.0286 6.49326L90.7144 2.04648L91.8523 1.88391V0.200822H86.2963V1.88391L87.6351 2.07517L91.7663 9.35259V12.1641L90.2745 12.451ZM30.2441 31.0081V29.9117L31.2152 29.7237V23.1764L30.2441 22.9884V21.8857H33.0697L37.042 28.2137L37.0796 28.2075V23.1764L35.9142 22.9884V21.8857H39.6923V22.9884L38.7149 23.1764V31.0081H36.948L32.8881 24.7427L32.8505 24.749V29.7237L34.0221 29.9117V31.0081H30.2441ZM39.5983 31.0081V29.9117L40.2499 29.8177L43.1508 21.8857H45.0241L47.9062 29.8177L48.5578 29.9117V31.0081H45.4502V29.9117L46.083 29.7989L45.682 28.5458H42.4741L42.0731 29.7989L42.7059 29.9117V31.0081H39.5983ZM42.9064 27.1987H45.2497L44.1846 24.0723L44.0968 23.7966H44.0592L43.9653 24.0911L42.9064 27.1987ZM49.1655 29.9117V31.0081H52.9436V29.9117L51.8659 29.7237V27.7877L51.7594 23.9157L51.797 23.9094L54.5851 30.8828H55.9698L58.6952 23.853L58.7328 23.8593L58.7015 27.9757V29.7237L57.6802 29.9117V31.0081H61.4583V29.9117L60.4809 29.7237V23.1764L61.4583 22.9884V21.8857H57.7742L55.3683 28.2451H55.3307L52.8433 21.8857H49.1655V22.9884L50.1367 23.1764V29.7237L49.1655 29.9117ZM62.1099 31.0081V29.9117L63.081 29.7237V23.1764L62.1099 22.9884V21.8857H69.1898V24.348H67.7863L67.7049 23.2954H64.9105V25.5885H67.9993V26.9982H64.9105V29.6047H67.8552L67.9367 28.5145H69.3276V31.0081H62.1099ZM14.3603 25.6054H0.178069V26.956H14.3603V25.6054ZM81.8947 26.956H96.0769V25.6054H81.8947V26.956Z" fill="white"/>
</svg>
